<svg xmlns="http://www.w3.org/2000/svg" viewBox="0 0 100 100"><rect width="100" height="100" rx="20" fill="#ffffff"/><svg x="11" y="23" width="78" height="54" viewBox="35 26.5 148 104" fill="#113ceb"><g transform="matrix(1.0362887,0,0,1.0362887,3.6809265,-33.726661)"><path d="m 41.409109,70.716689 h 39.579117 c -1.310311,0.796464 -2.684854,1.670005 -4.123627,2.620623 -3.930935,2.620623 -7.669177,5.562401 -11.214726,8.825334 -3.545549,3.262933 -6.74425,6.782789 -9.596105,10.55957 h 5.241246 c 1.156157,-1.387389 2.363699,-2.749086 3.622626,-4.085089 1.284619,-1.336004 2.607777,-2.63347 3.969474,-3.892397 3.031701,-2.749085 6.268941,-5.318323 9.71172,-7.707715 3.44278,-2.389391 7.05256,-4.496167 10.82934,-6.320326 h 6.936944 c 2.055391,0 3.866702,0.655156 5.433942,1.965467 1.56723,1.310312 2.56924,2.928932 3.00601,4.855861 -6.166175,1.592928 -11.844193,4.354859 -17.034055,8.285794 h 7.283791 c 0.179847,-0.07708 0.359693,-0.167001 0.53954,-0.26977 0.205539,-0.128462 0.411078,-0.244078 0.616617,-0.346848 2.826165,-1.490158 5.755097,-2.659161 8.786797,-3.50701 V 101.2007 c -0.35969,-1.464465 -1.13047,-2.633467 -2.31232,-3.507008 -1.23323,-0.899233 -2.787621,-1.34885 -4.663164,-1.34885 -1.61862,0 -3.23724,0.308308 -4.85586,0.924925 -1.644313,0.590925 -3.250087,1.477313 -4.817322,2.659162 -1.515851,1.079081 -2.826162,2.273781 -3.930935,3.584091 -1.104772,1.336 -2.004005,2.76193 -2.6977,4.27778 -0.642309,1.43877 -1.002003,2.87755 -1.07908,4.31632 -0.07708,1.43877 0.154154,2.67201 0.693694,3.6997 0.53954,1.13047 1.361696,1.97832 2.466469,2.54355 1.002003,0.56523 2.338007,0.84785 4.008012,0.84785 2.415084,0 4.778783,-0.64231 7.091098,-1.92693 2.338007,-1.23323 4.547553,-3.05739 6.628638,-5.47248 h -4.354862 c -1.207542,1.15616 -2.440777,2.0297 -3.699704,2.62062 -1.438773,0.61662 -2.749085,0.92493 -3.930934,0.92493 -1.798467,0 -3.095932,-0.56523 -3.892396,-1.6957 -0.822157,-1.10477 -0.976311,-2.56924 -0.462463,-4.3934 h 18.190209 l 0.26977,-0.61661 c 0.668,-1.54155 1.11762,-2.87755 1.34885,-4.00801 v -0.0385 -0.0385 23.93245 c -0.53954,0.30831 -1.06623,0.59093 -1.58008,0.84785 -0.51385,0.25693 -1.01485,0.501 -1.50301,0.73223 -1.46446,0.6937 -2.980314,1.31032 -4.547549,1.84986 -1.541543,0.53954 -3.108779,0.96346 -4.701707,1.27177 -1.772774,0.35969 -3.712549,0.34686 -5.819324,-0.0385 -2.183853,-0.334 -4.264936,-0.93777 -6.24325,-1.81131 -1.233234,-0.53954 -2.415084,-1.20754 -3.545549,-2.00401 -1.104772,-0.82215 -2.016851,-1.78562 -2.736238,-2.89039 -0.847849,-1.23323 -1.400235,-2.59493 -1.657159,-4.08509 h -4.162166 c 0.205539,1.51585 0.655155,3.00601 1.34885,4.47047 0.565233,1.23324 1.336004,2.41509 2.312314,3.54555 0.976311,1.10477 2.055391,2.00401 3.237241,2.6977 2.646315,1.61862 5.523862,2.8647 8.632641,3.73825 3.134471,0.87354 6.268941,1.002 9.403412,0.38538 1.978313,-0.38539 3.930934,-0.92493 5.857863,-1.61862 1.952621,-0.69369 3.853861,-1.503 5.703711,-2.42793 v 6.24325 c -0.20554,0.12846 -0.41108,0.24408 -0.61662,0.34685 -0.20554,0.10277 -0.39823,0.20554 -0.57808,0.30831 -2.92893,1.51585 -5.947784,2.839 -9.056563,3.96947 -3.083086,1.10477 -6.243249,1.91408 -9.480489,2.42793 -2.235237,0.35969 -4.483321,0.41108 -6.744251,0.15415 -2.260929,-0.28261 -4.496167,-0.65515 -6.705712,-1.11762 -3.057393,-0.61661 -6.089095,-1.58008 -9.095104,-2.89039 -2.980316,-1.336 -5.459631,-3.28862 -7.437945,-5.85786 -1.002003,-1.25893 -1.849851,-2.63347 -2.543545,-4.12363 -0.668002,-1.51585 -1.233235,-3.0574 -1.695698,-4.62463 -0.565232,-2.00401 -0.963464,-3.81532 -1.194696,-5.43394 h -4.085089 c 0.513848,3.82817 1.528697,7.55356 3.044548,11.17619 1.541543,3.62263 3.853857,6.69287 6.936943,9.21072 1.361697,1.15615 2.851855,2.13246 4.470475,2.92893 1.61862,0.77077 3.275779,1.45162 4.971476,2.04255 1.978314,0.69369 3.995166,1.29746 6.050557,1.81131 2.055391,0.51385 4.136474,0.80931 6.243249,0.88639 6.268941,0.25692 12.255267,-0.59093 17.958976,-2.54355 3.314319,-1.15616 6.500178,-2.50501 9.557568,-4.04655 v 4.08509 c 0,2.38939 -0.84785,4.43194 -2.54355,6.12763 -1.67,1.6957 -3.699701,2.54355 -6.089092,2.54355 H 41.409109 c -2.389391,0 -4.431936,-0.84785 -6.127633,-2.54355 -1.695697,-1.69569 -2.543546,-3.73824 -2.543546,-6.12763 V 79.387869 c 0,-2.389392 0.847849,-4.431937 2.543546,-6.127634 1.695697,-1.695697 3.738242,-2.543546 6.127633,-2.543546 z M 39.096795,118.62014 51.968679,89.985977 H 47.845051 L 34.934629,118.62014 Z m 6.474481,-0.0771 c 0.385385,0 0.757925,0.0128 1.117618,0.0385 0.359693,0 0.732233,-0.0128 1.117619,-0.0385 h 1.734236 c 0,-0.15415 0.01285,-0.19269 0.03854,-0.11561 0.02569,0.0514 0.115617,-0.56522 0.26977,-1.84986 0.308309,-2.26093 1.091926,-4.85586 2.350853,-7.78479 1.310312,-2.90324 2.723393,-5.0614 4.239244,-6.47448 1.464466,-1.28462 3.160163,-1.92693 5.087092,-1.92693 1.772774,0 2.839008,0.55239 3.198701,1.65716 0.334001,1.10477 0,2.80047 -1.002003,5.08709 l -5.164169,11.4845 h 3.892396 l 5.549555,-12.29381 c 1.387389,-3.13447 1.708544,-5.52386 0.963465,-7.168172 -0.796464,-1.670005 -2.594931,-2.505008 -5.395401,-2.505008 -1.258927,0 -2.479315,0.231232 -3.661165,0.693695 -1.130465,0.43677 -2.286622,1.091926 -3.468471,1.965467 0.488155,-0.796464 1.053388,-1.631466 1.695697,-2.505007 h -4.894399 c -2.132468,3.262935 -3.918089,6.628635 -5.356862,10.097105 -0.822156,2.00401 -1.387388,3.93094 -1.695697,5.78079 -0.282617,1.82416 -0.488156,3.77678 -0.616617,5.85786 z M 100.68144,105.74825 H 86.884628 c 1.18185,-1.67 2.659162,-3.0317 4.431936,-4.08509 1.695697,-1.002 3.404241,-1.503 5.125631,-1.503 1.644313,0 2.851854,0.48816 3.622625,1.46447 0.71939,0.97631 0.92493,2.35085 0.61662,4.12362 z m -21.196218,-5.24124 0.924925,0.0385 h 3.006009 l 1.580082,-3.545553 h -3.006009 c 1.952621,-2.492161 4.354859,-4.881552 7.206714,-7.168175 h -6.089095 c -4.136474,3.98232 -7.502176,8.517026 -10.097107,13.604118 -1.07908,2.15816 -1.965467,4.40624 -2.659162,6.74425 -0.693694,2.31231 -1.284619,4.66317 -1.772774,7.05256 -0.05139,0.17985 -0.08993,0.37254 -0.115616,0.57808 l -0.07708,0.53954 h 4.123628 c 0.07708,-1.15616 0.256923,-2.31232 0.53954,-3.46847 0.282616,-1.18185 0.616617,-2.31232 1.002003,-3.3914 1.310311,-3.80247 3.121624,-7.46364 5.433939,-10.98349 z m 1.271773,-29.790321 c 3.134471,-1.849851 6.371711,-3.50701 9.711721,-4.971476 3.365702,-1.490158 6.821327,-2.684854 10.366874,-3.584088 3.82817,-0.97631 7.73341,-1.503004 11.71573,-1.580081 3.98232,-0.102769 7.95179,-0.02569 11.90842,0.231231 5.78079,0.411078 11.47165,1.528697 17.07259,3.352856 5.62663,1.798467 10.63665,4.676014 15.03004,8.632641 2.05539,1.901237 3.91809,3.995166 5.5881,6.281788 1.67,2.26093 3.18585,4.611783 4.54755,7.052559 l 3.23724,6.782789 h -4.54755 c -1.00201,-2.004005 -2.01686,-3.995165 -3.04455,-5.973479 -1.02769,-1.978313 -2.20954,-3.866703 -3.54555,-5.66517 -1.49016,-1.926929 -3.13447,-3.712549 -4.93294,-5.356862 -1.79847,-1.670005 -3.73824,-3.134471 -5.81932,-4.393398 -3.57125,-2.15816 -7.42511,-3.725395 -11.56158,-4.701706 -4.11078,-1.002003 -8.22156,-1.657158 -12.33234,-1.965467 -3.75109,-0.256924 -7.50217,-0.346847 -11.25326,-0.26977 -3.75109,0.07708 -7.43795,0.565232 -11.06057,1.464466 -4.316323,1.104772 -8.529876,2.659161 -12.640657,4.663167 z m 51.025075,51.834381 c -2.31231,2.92893 -4.85586,5.63948 -7.63064,8.13164 -2.77478,2.49216 -5.63948,4.77878 -8.5941,6.85987 -3.46847,2.46647 -7.06541,4.62463 -10.7908,6.47448 v -4.62463 c 6.34602,-3.41709 12.1525,-7.56641 17.41943,-12.44796 0.71939,-0.69369 1.43877,-1.40023 2.15816,-2.11962 0.71939,-0.74508 1.42593,-1.50301 2.11962,-2.27378 z M 104.57383,77.538017 c 0.12847,0.693694 0.1927,1.310311 0.1927,1.849852 v 2.312314 c 2.90324,-0.796464 5.87071,-1.233235 8.90241,-1.310312 3.0317,-0.102769 6.01202,0.26977 8.94095,1.117619 2.85185,0.847849 5.40824,2.273776 7.66917,4.277782 2.28663,2.004006 4.08509,4.316321 5.3954,6.936944 h 4.47048 c -0.0771,-0.154155 -0.15416,-0.308309 -0.23123,-0.462463 -0.0514,-0.179847 -0.11563,-0.346847 -0.1927,-0.501002 -1.07908,-2.389391 -2.49216,-4.58609 -4.23924,-6.590096 -1.74708,-2.029699 -3.75109,-3.699704 -6.01202,-5.010015 -3.10877,-1.747082 -6.3717,-2.890393 -9.78879,-3.429933 -3.3914,-0.53954 -6.82133,-0.578079 -10.2898,-0.115616 -1.67001,0.256924 -3.27578,0.565233 -4.81733,0.924926 z m 36.49603,24.394913 c -0.41107,2.92893 -1.22038,5.88356 -2.42793,8.86388 -0.53954,1.38739 -1.15616,2.72339 -1.84985,4.00801 -0.69369,1.25893 -1.42593,2.50501 -2.1967,3.73824 h -4.93293 c 2.05539,-2.82616 3.76393,-5.84501 5.12563,-9.05656 1.38739,-3.23724 2.20954,-6.5901 2.46647,-10.058572 0.0514,-0.796464 1e-5,-1.695698 -0.15416,-2.697701 h 4.08509 c 0.0257,0.411079 0.0514,0.822157 0.0771,1.233235 0.0514,0.385385 0.0771,0.770771 0.0771,1.156157 v 0.03854 0 c 0.59093,-0.719387 1.37455,-1.310312 2.35086,-1.772775 1.07908,-0.488155 2.15816,-0.732233 3.23724,-0.732233 l -1.84985,4.085089 c -1.61862,0.12846 -2.95463,0.52669 -4.00802,1.19469 z m -36.07375,-0.7164 v 0.11562 c 0.0257,0.0257 0.0385,0.0514 0.0385,0.0771 0.17985,1.00201 0.16701,2.0554 -0.0385,3.16017 0,-1.11147 0,-2.22101 0,-3.35289 z m 52.29849,17.40361 1.1947,-2.65916 c -1.38739,1.02769 -2.83901,1.81131 -4.35486,2.35085 -1.46447,0.53954 -2.90324,0.80931 -4.31632,0.80931 -3.23724,0 -5.44678,-1.09193 -6.62863,-3.27578 -1.15616,-2.13247 -1.00201,-4.84301 0.46246,-8.13164 0.71939,-1.59293 1.64431,-3.0317 2.77478,-4.31632 1.13046,-1.38739 2.42792,-2.59493 3.89239,-3.622625 1.61862,-1.130465 3.18586,-1.965468 4.70171,-2.505008 1.54154,-0.53954 3.13447,-0.80931 4.77878,-0.80931 1.46447,0 2.71055,0.256924 3.73824,0.770772 1.00201,0.53954 1.78563,1.336004 2.35086,2.389391 l 1.15615,-2.620623 h 3.93094 l -9.71172,21.620143 z m -9.5961,-10.94496 c -1.002,2.15816 -1.10477,3.99517 -0.30831,5.51102 0.79647,1.46447 2.23524,2.1967 4.31632,2.1967 1.90124,0 3.93094,-0.73223 6.0891,-2.1967 2.10677,-1.49016 3.60978,-3.23724 4.50901,-5.24125 0.95062,-2.13247 1.05339,-3.94378 0.30831,-5.43394 -0.79647,-1.51585 -2.18386,-2.27377 -4.16217,-2.27377 -2.05539,0 -4.12362,0.71939 -6.20471,2.15816 -2.13247,1.46447 -3.64832,3.22439 -4.54755,5.27978 z m -27.13116,14.33635 c -1.69569,1.79847 -3.54554,3.44278 -5.54955,4.93294 -1.97831,1.46447 -4.00801,2.78762 -6.0891,3.96947 -1.25893,0.74508 -2.64631,1.49016 -4.16216,2.23524 v -4.66317 c 1.02769,-0.51385 2.01685,-1.02769 2.96747,-1.54154 0.95061,-0.53954 1.77277,-1.01485 2.46647,-1.42593 0.97631,-0.61661 1.54154,-1.002 1.69569,-1.15615 0.15415,-0.17985 0.69369,-0.64231 1.61862,-1.38739 1.77278,-1.43877 3.32717,-2.91609 4.66317,-4.43194 0.41108,-0.43677 0.835,-0.96346 1.27177,-1.58008 -1.02769,0.59093 -1.99116,1.04054 -2.89039,1.34885 -1.46447,0.53954 -2.89039,0.80931 -4.27778,0.80931 -3.28863,0 -5.49817,-1.09193 -6.62864,-3.27578 -1.20754,-2.13247 -1.06623,-4.84301 0.42393,-8.13164 0.668,-1.49016 1.59293,-2.92893 2.77478,-4.31632 1.23323,-1.43877 2.5307,-2.64631 3.89239,-3.622625 1.67001,-1.156157 3.25009,-1.99116 4.74025,-2.505008 1.49015,-0.53954 3.08308,-0.80931 4.77878,-0.80931 1.43877,0 2.67201,0.256924 3.6997,0.770772 1.00201,0.565232 1.79847,1.361696 2.3894,2.389391 l 1.15615,-2.620623 h 3.8924 l -8.0931,18.036053 c -0.64231,1.38739 -1.3617,2.65916 -2.15816,3.81532 -0.79647,1.13047 -1.65716,2.18385 -2.58209,3.16016 z m -10.44395,-14.33635 c -0.97631,2.20955 -1.07908,4.04655 -0.30831,5.51102 0.77077,1.46447 2.22239,2.1967 4.35486,2.1967 1.87555,0 3.8924,-0.73223 6.05056,-2.1967 2.10677,-1.49016 3.60978,-3.23724 4.50901,-5.24125 0.95062,-2.13247 1.05339,-3.94378 0.30831,-5.43394 -0.79647,-1.51585 -2.17101,-2.27377 -4.12363,-2.27377 -2.10677,0 -4.17501,0.71939 -6.20471,2.15816 -2.08109,1.41308 -3.60978,3.17301 -4.58609,5.27978 z"/></g></svg></svg>